<?xml version="1.0" encoding="utf-8"?>
<!-- Uploaded to: SVG Repo, www.svgrepo.com, Generator: SVG Repo Mixer Tools -->
<!DOCTYPE svg PUBLIC "-//W3C//DTD SVG 1.1//EN" "http://www.w3.org/Graphics/SVG/1.1/DTD/svg11.dtd">
<svg xmlns="http://www.w3.org/2000/svg" xmlns:xlink="http://www.w3.org/1999/xlink" version="1.1" id="Layer_1"  width="512" height="512" viewBox="0 0 512 512" enable-background="new 0 0 512 512" xml:space="preserve">
<g id="apron">
	<g>
		<path fill="#424953" d="M503.417,170.869L503.417,170.869c-1.141-0.227-27.891-5.343-47.296,10.625    c-12.405,10.211-18.671,26.086-18.593,47.179c0.062,14.148-3.609,24.476-10.891,30.71c-12.094,10.359-31.203,7.453-31.391,7.422    l-1.734,10.523l-1.781,10.515c0.422,0.062,4.188,0.688,9.766,0.688c10.094,0,26.125-2,38.859-12.812    c12.358-10.477,18.593-26.336,18.515-47.125c-0.062-14.32,3.547-24.601,10.719-30.554c11.14-9.258,28.374-6.469,29.577-6.258    c0,0,0.016,0,0.031,0s0.031,0.008,0.031,0.008l0,0c0.672,0.133,1.375,0.211,2.094,0.211c5.891,0,10.672-4.781,10.672-10.672    C511.995,176.158,508.308,171.845,503.417,170.869z"/>
		<path fill="#424953" d="M85.347,259.383c-7.281-6.234-10.953-16.562-10.891-30.71c0.078-21.093-6.188-36.968-18.593-47.179    C36.458,165.525,9.708,170.65,8.567,170.869l0,0c-4.891,0.977-8.562,5.289-8.562,10.46c0,5.891,4.766,10.672,10.656,10.672    c0.719,0,1.422-0.078,2.094-0.211l0,0c0,0,0.016-0.008,0.031-0.008s0.031,0,0.031-0.008c1.234-0.211,18.359-2.969,29.484,6.188    c7.234,5.953,10.875,16.258,10.812,30.632c-0.078,20.789,6.156,36.648,18.515,47.125c12.734,10.812,28.765,12.812,38.859,12.812    c5.578,0,9.343-0.625,9.765-0.688l-3.516-21.038C116.549,266.836,97.44,269.742,85.347,259.383z"/>
	</g>
	<path fill="#424953" d="M256,0.005c-41.249,0-74.67,33.421-74.67,74.663v132.513h149.326V74.667   C330.655,33.426,297.233,0.005,256,0.005z M309.327,185.845h-106.67V74.667c0-29.406,23.921-53.335,53.343-53.335   c29.405,0,53.327,23.929,53.327,53.335V185.845z"/>
	<path fill="#46CEAD" d="M330.624,106.667H180.939c0,63.999-84.936,63.999-84.936,85.334c0,21.328,0,277.323,0,277.323   c0,23.562,19.094,42.671,42.656,42.671h234.667c23.562,0,42.672-19.109,42.672-42.671c0,0,0-255.995,0-277.323   C415.997,170.666,330.624,171.33,330.624,106.667z"/>
	<g>
		<path fill="#CBD0D8" d="M256,437.324c-35.296,0-63.999-28.702-63.999-63.998v-63.999h127.998v63.999    C319.999,408.622,291.28,437.324,256,437.324z"/>
	</g>
	<path fill="#35BB9B" d="M160.002,511.995c0-5.906-4.781-10.672-10.672-10.672s-10.671,4.766-10.671,10.672l0,0H160.002   L160.002,511.995z"/>
	<path fill="#35BB9B" d="M202.657,511.995c0-5.906-4.766-10.672-10.656-10.672c-5.906,0-10.671,4.766-10.671,10.672l0,0H202.657   L202.657,511.995z"/>
	<path fill="#35BB9B" d="M245.328,511.995c0-5.906-4.781-10.672-10.671-10.672S224,506.089,224,511.995l0,0H245.328L245.328,511.995   z"/>
	<path fill="#35BB9B" d="M287.999,511.995c0-5.906-4.781-10.672-10.672-10.672s-10.671,4.766-10.671,10.672l0,0H287.999   L287.999,511.995z"/>
	<path fill="#35BB9B" d="M330.655,511.995c0-5.906-4.766-10.672-10.656-10.672s-10.672,4.766-10.672,10.672l0,0H330.655   L330.655,511.995z"/>
	<path fill="#35BB9B" d="M373.325,511.995c0-5.906-4.78-10.672-10.671-10.672s-10.656,4.766-10.656,10.672l0,0H373.325   L373.325,511.995z"/>
	<g>
		<path fill="#E5E8EC" d="M256,426.652c-35.296,0-63.999-28.702-63.999-63.998v-63.999h127.998v63.999    C319.999,397.95,291.28,426.652,256,426.652z"/>
	</g>
</g>
</svg>