<?xml version="1.0" encoding="utf-8"?>
<!-- Uploaded to: SVG Repo, www.svgrepo.com, Generator: SVG Repo Mixer Tools -->
<!DOCTYPE svg PUBLIC "-//W3C//DTD SVG 1.1//EN" "http://www.w3.org/Graphics/SVG/1.1/DTD/svg11.dtd">
<svg xmlns="http://www.w3.org/2000/svg" xmlns:xlink="http://www.w3.org/1999/xlink" version="1.1" id="Layer_1"  width="512" height="512" viewBox="0 0 512 512" enable-background="new 0 0 512 512" xml:space="preserve">
<g id="coffee_machine">
	<rect x="95.792" y="10.677" fill="#646C77" width="320.424" height="479.944"/>
	<path fill="#424953" d="M85.112,0.005v501.303h341.775V0.005H85.112z M405.528,479.949H106.472V21.364h299.057V479.949z"/>
	<path fill="#424953" d="M127.838,501.308c0,5.891-4.781,10.688-10.68,10.688c-5.897,0-10.687-4.797-10.687-10.688   c0-5.906,4.789-10.687,10.687-10.687C123.057,490.621,127.838,495.401,127.838,501.308z"/>
	<path fill="#424953" d="M405.528,501.308c0,5.891-4.781,10.688-10.688,10.688s-10.688-4.797-10.688-10.688   c0-5.906,4.781-10.687,10.688-10.687S405.528,495.401,405.528,501.308z"/>
	<path fill="#A9B1BC" d="M213.282,352.451c0,5.891-4.789,10.672-10.688,10.672s-10.68-4.781-10.68-10.672   c0-5.906,4.781-10.688,10.68-10.688S213.282,346.545,213.282,352.451z"/>
	<path fill="#A9B1BC" d="M394.841,181.563c0-5.906-4.781-10.687-10.688-10.687l0,0h-42.717c-5.891,0-10.672,4.781-10.672,10.687   c0,5.906,4.781,10.688,10.672,10.688h42.717l0,0C390.06,192.251,394.841,187.47,394.841,181.563z"/>
	<g>
		<circle fill="#424953" cx="362.811" cy="331.092" r="42.718"/>
	</g>
	<g>
		<rect x="298.718" y="14.083" fill="#424953" width="21.375" height="479.6"/>
	</g>
	<g>
		<path fill="#FECD57" d="M138.447,64.082V85.44c0,35.39,28.687,64.077,64.077,64.077c35.39,0,64.085-28.687,64.085-64.077V64.082    H138.447z"/>
	</g>
	<path fill="#ED5564" d="M256.07,149.518H149.268c-5.898,0-10.68,4.781-10.68,10.688c0,5.891,4.781,10.671,10.68,10.671H256.07   c5.898,0,10.68-4.781,10.68-10.671C266.75,154.299,261.969,149.518,256.07,149.518z"/>
	<path fill="#A9B1BC" d="M197.259,213.61c0,5.89-4.781,10.671-10.68,10.671s-10.68-4.781-10.68-10.671   c0-5.906,4.781-10.688,10.68-10.688S197.259,207.704,197.259,213.61z"/>
	<path fill="#A9B1BC" d="M229.297,213.61c0,5.89-4.781,10.671-10.68,10.671c-5.897,0-10.679-4.781-10.679-10.671   c0-5.906,4.781-10.688,10.679-10.688C224.516,202.923,229.297,207.704,229.297,213.61z"/>
	<g>
		<path fill="#FECD57" d="M159.947,202.923c-0.07,0-0.141,0.016-0.211,0.016v-0.016H127.76c-5.891,0-10.68,4.781-10.68,10.688    c0,5.89,4.789,10.671,10.68,10.671h31.977v-0.016c0.07,0.016,0.141,0.016,0.211,0.016c5.898,0,10.679-4.781,10.679-10.671    C170.626,207.704,165.846,202.923,159.947,202.923z"/>
		<path fill="#FECD57" d="M277.358,202.923h-31.968c-5.898,0-10.68,4.781-10.68,10.688c0,5.89,4.781,10.671,10.68,10.671h31.968    c5.891,0,10.672-4.781,10.672-10.671C288.03,207.704,283.249,202.923,277.358,202.923z"/>
	</g>
	<path fill="#A9B1BC" d="M197.259,256.328c0,5.891-4.781,10.672-10.68,10.672s-10.68-4.781-10.68-10.672   c0-5.906,4.781-10.688,10.68-10.688S197.259,250.422,197.259,256.328z"/>
	<path fill="#A9B1BC" d="M229.297,256.328c0,5.891-4.781,10.672-10.68,10.672c-5.897,0-10.679-4.781-10.679-10.672   c0-5.906,4.781-10.688,10.679-10.688C224.516,245.641,229.297,250.422,229.297,256.328z"/>
	<g>
		<path fill="#FECD57" d="M159.947,245.641c-0.07,0-0.141,0.016-0.211,0.016v-0.016H127.76c-5.891,0-10.68,4.781-10.68,10.688    c0,5.891,4.789,10.672,10.68,10.672h31.977l0,0c0.07,0,0.141,0,0.211,0c5.898,0,10.679-4.781,10.679-10.672    C170.626,250.422,165.846,245.641,159.947,245.641z"/>
		<path fill="#FECD57" d="M277.358,245.641h-31.968c-5.898,0-10.68,4.781-10.68,10.688c0,5.891,4.781,10.672,10.68,10.672h31.968    c5.891,0,10.672-4.781,10.672-10.672C288.03,250.422,283.249,245.641,277.358,245.641z"/>
	</g>
	<path fill="#A9B1BC" d="M197.259,299.046c0,5.906-4.781,10.688-10.68,10.688s-10.68-4.781-10.68-10.688   c0-5.891,4.781-10.672,10.68-10.672S197.259,293.155,197.259,299.046z"/>
	<path fill="#A9B1BC" d="M229.297,299.046c0,5.906-4.781,10.688-10.68,10.688c-5.897,0-10.679-4.781-10.679-10.688   c0-5.891,4.781-10.672,10.679-10.672C224.516,288.374,229.297,293.155,229.297,299.046z"/>
	<g>
		<path fill="#FECD57" d="M159.947,288.374c-0.07,0-0.141,0-0.211,0l0,0H127.76c-5.891,0-10.68,4.781-10.68,10.672    c0,5.906,4.789,10.688,10.68,10.688h31.977v-0.016c0.07,0,0.141,0.016,0.211,0.016c5.898,0,10.679-4.781,10.679-10.688    C170.626,293.155,165.846,288.374,159.947,288.374z"/>
		<path fill="#FECD57" d="M277.358,288.374h-31.968c-5.898,0-10.68,4.781-10.68,10.672c0,5.906,4.781,10.688,10.68,10.688h31.968    c5.891,0,10.672-4.781,10.672-10.688C288.03,293.155,283.249,288.374,277.358,288.374z"/>
	</g>
	<g>
		<polygon fill="#E5E8EC" points="234.641,459.246 170.556,459.246 159.877,373.811 245.32,373.811   "/>
	</g>
	<path fill="#424953" d="M117.158,331.092v128.154H288.03V331.092H117.158z M266.68,437.887H138.518v-85.436H266.68V437.887z"/>
</g>
</svg>